<svg xmlns="http://www.w3.org/2000/svg" viewBox="0 0 16 16" enable-background="new 0 0 16 16" width="16" height="16">
<path fill="none" d="M10.622,6.126H5.378c-0.207,0-0.375,0.168-0.375,0.375s0.168,0.375,0.375,0.375h5.244
	c0.207,0,0.374-0.167,0.375-0.375C10.997,6.294,10.829,6.126,10.622,6.126z"/>
<path fill="none" d="M9.873,8.375H6.127c-0.207,0-0.375,0.167-0.375,0.374S5.92,9.124,6.127,9.124h3.746
	c0.207,0,0.375-0.167,0.375-0.374S10.08,8.375,9.873,8.375z"/>
<path fill="none" d="M9.873,8.375H6.127c-0.207,0-0.375,0.167-0.375,0.374S5.92,9.124,6.127,9.124h3.746
	c0.207,0,0.375-0.167,0.375-0.374S10.08,8.375,9.873,8.375z"/>
<path fill="none" d="M10.622,6.126H5.378c-0.207,0-0.375,0.168-0.375,0.375s0.168,0.375,0.375,0.375h5.244
	c0.207,0,0.374-0.167,0.375-0.375C10.997,6.294,10.829,6.126,10.622,6.126z"/>
<path fill="#72DB67" d="M9.873,9.124H6.127c-0.207,0-0.375-0.168-0.375-0.375S5.92,8.375,6.127,8.375h3.746
	c0.207,0,0.375,0.168,0.375,0.375S10.08,9.124,9.873,9.124z"/>
<circle fill="#FF0000" cx="12.59" cy="3.674" r="2.236"/>
<path fill="#7445B9" d="M9.354,3.674c0-0.512,0.129-0.989,0.341-1.419C9.155,2.11,8.595,2.007,8,2.007
	c-3.31,0-5.993,2.348-5.993,5.244c0,1.655,0.878,3.129,2.247,4.09v2.652L6.88,12.4c0.363,0.06,0.737,0.095,1.12,0.095
	c3.31,0,5.993-2.348,5.993-5.244c0-0.219-0.021-0.433-0.056-0.643C13.526,6.797,13.073,6.91,12.59,6.91
	C10.803,6.91,9.354,5.461,9.354,3.674z"/>
</svg>
