<svg xmlns="http://www.w3.org/2000/svg" viewBox="0 0 16 16" enable-background="new 0 0 16 16" width="16" height="16">
<polygon fill="none" points="8.151,2.586 8.15,2.586 8.44,6.177 5.123,9.028 8.792,10.501 "/>
<polygon fill="none" points="7.855,16.085 10.939,13.128 4.772,13.128 "/>
<polygon fill="#00B200" points="8.792,10.501 8.792,10.501 5.123,9.028 2.684,11.125 4.772,13.128 10.939,13.128 12.231,11.888 "/>
<polygon fill="#D73131" points="8.792,10.501 12.236,11.884 13.876,10.31 9.959,2.586 8.151,2.586 "/>
<rect x="10.509" y="9.339" fill="#D73131" width="0.006" height="3.711"/>
<polygon fill="#4040D1" points="5.099,9.019 5.123,9.028 8.44,6.177 8.15,2.586 5.671,2.586 1.8,10.277 2.681,11.122 "/>
<polygon display="none" fill="#4040D1" points="5.629,9.086 5.609,9.078 3.642,10.789 3.644,10.792 "/>
<polygon display="none" fill="#FFFFFF" points="7.813,0.391 8.092,3.844 8.092,3.844 "/>
<polygon display="none" fill="#FFFFFF" points="9.564,3.844 15.208,3.844 15.208,-0.865 0.396,-0.865 0.396,3.844 6.075,3.844
	7.813,0.391 "/>
<polygon display="none" fill="#FFFFFF" points="8.092,3.844 9.564,3.844 7.813,0.391 "/>
<polygon display="none" fill="#FFFFFF" points="7.813,0.391 6.075,3.844 8.092,3.844 "/>
<polygon display="none" fill="#FFFFFF" points="7.852,14.827 5.344,12.421 1.766,12.421 3.216,11.16 1.766,12.406 2.925,10.102
	-1.323,6.028 -4.582,9.426 6.109,19.679 7.852,17.862 6.336,16.281 "/>
<polygon display="none" fill="#FFFFFF" points="3.216,11.16 1.766,12.421 5.344,12.421 3.644,10.792 "/>
<polygon display="none" fill="#FFFFFF" points="3.216,11.16 3.642,10.789 2.925,10.102 1.766,12.406 "/>
<polygon display="none" fill="#FFFFFF" points="3.642,10.789 3.216,11.16 3.644,10.792 "/>
<polygon display="none" fill="#FFFFFF" points="20.286,9.426 17.027,6.028 12.751,10.129 13.908,12.409 13.938,12.421
	13.914,12.421 10.361,12.421 7.852,14.827 9.368,16.281 7.852,17.862 9.595,19.679 "/>
<polygon display="none" fill="#FFFFFF" points="13.938,12.421 13.908,12.409 13.914,12.421 "/>
<polygon display="none" fill="#FFFFFF" points="10.361,12.421 13.914,12.421 11.413,11.413 "/>
<polygon display="none" fill="#FFFFFF" points="13.908,12.409 12.751,10.129 11.416,11.409 "/>
<polygon display="none" fill="#FFFFFF" points="11.413,11.413 13.914,12.421 13.908,12.409 11.416,11.409 "/>
<polygon display="none" fill="#FFFFFF" points="7.852,14.827 6.336,16.281 7.852,17.862 9.368,16.281 "/>
</svg>
