<svg xmlns="http://www.w3.org/2000/svg" viewBox="0 0 16 16" enable-background="new 0 0 16 16" width="16" height="16">
<g>
	<path fill-rule="evenodd" clip-rule="evenodd" fill="#0085D6" d="M8.589,10.447l3.02,3.328l1.482-1.536L9.918,9.069L8.589,10.447
		L8.589,10.447z M10.995,11.973l0.614-0.463l0.614,0.463l-0.235,0.748h-0.76L10.995,11.973L10.995,11.973z M5.53,7.159L6.5,8.165
		L7.81,6.806L6.803,5.762c1.064-2.52-1.994-3.504-1.994-3.504C4.239,2.101,4.353,2.554,4.353,2.554
		C5.55,3.577,5.359,3.911,5.359,3.911C5.208,5.094,4.22,5.546,4.22,5.546C3.232,5.979,2.415,4.542,2.415,4.542
		C2.093,4.483,2.131,4.858,2.131,4.858C2.928,8.499,5.53,7.159,5.53,7.159L5.53,7.159z M10.982,4.149c0,0-1.026,0.118-0.95-0.984
		L9.216,2.318L7.734,3.852l0.722,0.748c0,0,1.786,0.077,1.159,1.594L6.936,8.991L6.422,8.912l-3.058,3.169
		c0,0-0.209,0.768,0.323,1.24c0,0,0.342,0.434,1.064,0.413l3.002-3.228l0.057-0.531l3.058-3.15c0,0,0.171-0.275,0.456-0.02
		c0,0,0.817,0.374,0.76,2.303l0.589,0.61c0,0,0.627-1.496,0.399-2.775C13.072,6.943,13.052,5.743,10.982,4.149L10.982,4.149z"/>
</g>
</svg>
