<svg xmlns="http://www.w3.org/2000/svg" viewBox="0 0 16 16" enable-background="new 0 0 16 16" width="16" height="16">
<path fill="#60A0AC" d="M8.993,10.575c-0.083,0.109-0.172,0.206-0.268,0.291c-0.389,0.344-0.854,0.516-1.395,0.516
	c-0.734,0-1.33-0.271-1.788-0.812c-0.459-0.54-0.688-1.449-0.688-2.723c0-1.201,0.233-2.07,0.698-2.606
	c0.465-0.536,1.071-0.805,1.819-0.805c0.541,0,1.001,0.151,1.379,0.454C8.802,4.932,8.833,4.992,8.88,5.039l0.925-1.753
	c-0.654-0.39-1.429-0.589-2.331-0.589c-1.412,0-2.552,0.464-3.418,1.393c-0.867,0.928-1.3,2.231-1.3,3.91
	c0,1.586,0.431,2.837,1.293,3.751s1.962,1.372,3.301,1.372c1.04,0,1.901-0.253,2.592-0.746L8.993,10.575z"/>
<rect x="7.734" y="6.001" fill="#60A0AC" width="1.038" height="3.592"/>
<rect x="6.457" y="7.279" fill="#60A0AC" width="3.592" height="1.038"/>
<rect x="11.673" y="6.001" fill="#60A0AC" width="1.038" height="3.592"/>
<rect x="10.396" y="7.279" fill="#60A0AC" width="3.592" height="1.038"/>
<path fill="#60A0AC" d="M9.983,2.952c0,0-4.796-2.202-7.008,1.723c-2.313,4.103,0.692,11.741,7.24,8.112l-1.17-2.025l-0.018,1.937
	l-4.061-1.656L3.704,8.316l0.355-3.069l2.291-1.656l1.903,0.177L8.75,4.89l0.257-1.16l0.315-0.375L9.549,3.34l0.256-0.055
	L9.983,2.952z"/>
</svg>
