<svg xmlns="http://www.w3.org/2000/svg" viewBox="0 0 16 16" enable-background="new 0 0 16 16" width="16" height="16">
<g>
	<path fill-rule="evenodd" clip-rule="evenodd" fill="#FF00B7" d="M10.494,9.721c-0.002-0.002-0.005-0.004-0.007-0.006
		c3.042-3.32,3.629-7.15,3.198-7.565c-0.52-0.5-4.264,0.346-7.432,3.495C6.251,5.643,6.247,5.64,6.244,5.637L6.244,5.636
		c-0.496-0.477-1.217-0.535-1.69-0.033L2.082,8.22C1.609,8.721,1.764,9.282,2.428,9.468l0.328,0.091
		c0.631,0.177,1.502-0.049,1.993-0.504c0.163,0.512,0.522,0.964,0.966,1.39c0.443,0.426,0.907,0.766,1.424,0.909
		c-0.434,0.508-0.624,1.387-0.424,2.01l0.104,0.323c0.212,0.656,0.779,0.789,1.261,0.297l2.516-2.574
		C11.078,10.916,10.992,10.2,10.494,9.721L10.494,9.721L10.494,9.721z M9.903,4.163c0.476-0.496,1.265-0.512,1.76-0.036
		c0.496,0.476,0.511,1.264,0.035,1.76c-0.476,0.495-1.264,0.511-1.759,0.035C9.442,5.447,9.427,4.658,9.903,4.163L9.903,4.163z"/>
	<path fill-rule="evenodd" clip-rule="evenodd" fill="#FF00B7" d="M5.117,11.066c-0.408-0.391-0.755-0.8-0.994-1.237
		C4.066,9.868,4.01,9.909,3.961,9.961c-0.468,0.486-0.342,1.373,0.28,1.971c0.621,0.597,1.513,0.687,1.981,0.201
		c0.044-0.046,0.079-0.1,0.113-0.153C5.909,11.76,5.507,11.44,5.117,11.066L5.117,11.066z"/>
</g>
</svg>
