<svg xmlns="http://www.w3.org/2000/svg" viewBox="0 0 16 16" enable-background="new 0 0 16 16" width="16" height="16">
<g>
	<path fill="#72DB67" d="M8,2.007c-3.31,0-5.993,2.348-5.993,5.244c0,1.655,0.878,3.129,2.247,4.09v2.652L6.88,12.4
		c0.363,0.06,0.737,0.095,1.12,0.095c3.31,0,5.993-2.348,5.993-5.244S11.31,2.007,8,2.007L8,2.007z M9.873,9.124H6.127
		c-0.207,0-0.375-0.168-0.375-0.375S5.92,8.375,6.127,8.375h3.746c0.207,0,0.375,0.168,0.375,0.375S10.08,9.124,9.873,9.124
		L9.873,9.124z M10.622,6.876H5.378c-0.207,0-0.375-0.168-0.375-0.375s0.168-0.375,0.375-0.375h5.244
		c0.207,0,0.375,0.168,0.375,0.375C10.996,6.709,10.829,6.876,10.622,6.876L10.622,6.876z"/>
</g>
</svg>
