<svg xmlns="http://www.w3.org/2000/svg" viewBox="0 0 16 16" enable-background="new 0 0 16 16" width="16" height="16">
<g>
	<path fill="#0073D1" d="M2.716,6.109L2.707,6.12l5.036,2.479l0.009-0.012c0.133,0.078,0.285,0.134,0.457,0.134
		c0.173,0,0.323-0.057,0.457-0.134l0.009,0.012l5.036-2.479l-0.009-0.012c0.225-0.132,0.383-0.346,0.383-0.6
		c0-0.254-0.158-0.468-0.383-0.599l0.009-0.012L8.673,2.419L8.664,2.431C8.53,2.353,8.38,2.319,8.208,2.319
		c-0.173,0-0.323,0.057-0.458,0.134L7.743,2.442L2.706,4.898L2.715,4.91C2.49,5.041,2.333,5.254,2.333,5.51
		C2.333,5.764,2.49,5.977,2.716,6.109L2.716,6.109z M13.244,7.483c-0.339,0-0.466,0.146-0.466,0.146l-4.57,2.183L3.63,7.595
		C3.496,7.516,3.344,7.503,3.172,7.483C2.594,7.414,2.334,7.811,2.334,8.216c0,0.255,0.157,0.468,0.383,0.599l5.027,2.491
		l0.009-0.012c0.133,0.08,0.285,0.135,0.457,0.135c0.173,0,0.323-0.057,0.457-0.135l0.009,0.012l5.028-2.42
		c0.224-0.132,0.382-0.391,0.382-0.646C14.083,7.835,13.707,7.483,13.244,7.483L13.244,7.483z M13.244,10.121
		c-0.339,0-0.466,0.146-0.466,0.146l-4.57,2.185L3.63,10.234c-0.134-0.078-0.286-0.092-0.458-0.111
		c-0.577-0.07-0.839,0.328-0.839,0.734c0,0.255,0.157,0.468,0.383,0.599l5.028,2.49l0.009-0.012
		c0.133,0.079,0.285,0.135,0.457,0.135c0.173,0,0.323-0.057,0.457-0.135l0.009,0.012l5.028-2.421
		c0.224-0.132,0.382-0.391,0.382-0.646C14.083,10.473,13.707,10.121,13.244,10.121L13.244,10.121z"/>
</g>
</svg>
