<svg xmlns="http://www.w3.org/2000/svg" viewBox="0 0 16 16" enable-background="new 0 0 16 16" width="16" height="16">
<path fill="#20618E" d="M7.927,1.796C7.421,1.798,6.938,1.841,6.512,1.917c-1.253,0.221-1.48,0.685-1.48,1.539v1.128h2.96V4.96
	h-2.96H3.921c-0.86,0-1.614,0.517-1.849,1.501c-0.272,1.128-0.284,1.831,0,3.009c0.21,0.876,0.713,1.501,1.573,1.501h1.018V9.617
	c0-0.977,0.845-1.839,1.849-1.839h2.957c0.823,0,1.48-0.678,1.48-1.504V3.455c0-0.802-0.677-1.405-1.48-1.539
	C8.961,1.832,8.433,1.794,7.927,1.796L7.927,1.796z M6.326,2.703c0.306,0,0.555,0.254,0.555,0.566c0,0.311-0.25,0.562-0.555,0.562
	c-0.307,0-0.555-0.251-0.555-0.562C5.771,2.957,6.019,2.703,6.326,2.703L6.326,2.703z"/>
<path fill="#E2B939" d="M11.318,4.96v1.315c0,1.019-0.864,1.877-1.849,1.877H6.512c-0.81,0-1.48,0.693-1.48,1.504v2.819
	c0,0.802,0.698,1.274,1.48,1.504c0.937,0.276,1.836,0.325,2.957,0c0.745-0.216,1.48-0.65,1.48-1.504v-1.128H7.992V10.97h2.957h1.48
	c0.86,0,1.181-0.6,1.48-1.501c0.309-0.927,0.296-1.819,0-3.009c-0.213-0.856-0.619-1.501-1.48-1.501L11.318,4.96L11.318,4.96
	L11.318,4.96z M9.655,12.098c0.307,0,0.555,0.251,0.555,0.562c0,0.312-0.249,0.566-0.555,0.566c-0.306,0-0.555-0.254-0.555-0.566
	C9.1,12.35,9.35,12.098,9.655,12.098L9.655,12.098z"/>
</svg>
