<?xml version="1.0" encoding="utf-8"?>
<!-- Generator: Adobe Illustrator 21.1.0, SVG Export Plug-In . SVG Version: 6.00 Build 0)  -->
<svg version="1.1" id="图层_1" xmlns="http://www.w3.org/2000/svg" xmlns:xlink="http://www.w3.org/1999/xlink" x="0px" y="0px"
	 viewBox="0 0 16 16" style="enable-background:new 0 0 16 16;" xml:space="preserve">
<style type="text/css">
	.st0{display:none;fill:#00979B;}
	.st1{display:none;fill:#7445B9;}
	.st2{fill:#00979B;}
	.st3{display:none;fill:#FFFFFF;}
	.st4{fill:#FFFFFF;}
	.st5{fill:#7445B9;}
</style>
<path class="st0" d="M15,9.7c0-1.7-1.6-3-3.7-3c-2,0-3.7,1.4-3.7,3c0,1.7,1.6,3,3.7,3c0.3,0,0.6,0,0.9-0.1l0.5,0.2l1,0.4l-0.2-0.7
	l-0.1-0.3C14.3,11.6,15,10.7,15,9.7L15,9.7z"/>
<path class="st1" d="M10.8,5.9c0.1,0,0.1,0,0.2,0c-0.6-1.8-2.5-3.2-4.9-3.2C3.3,2.7,1,4.7,1,7c0,1.5,0.9,2.7,2.2,3.5l-0.4,1.4
	l1.9-0.8c0.4,0.1,0.9,0.2,1.4,0.2c0.4,0,0.8,0,1.2-0.1C6.9,10.6,6.7,10,6.7,9.4C6.7,7.5,8.5,5.9,10.8,5.9L10.8,5.9z"/>
<image style="display:none;overflow:visible;enable-background:new    ;" width="16" height="16" xlink:href="../../../数据包.png" >
</image>
<ellipse class="st2" cx="7.3" cy="2.9" rx="6.1" ry="2.4"/>
<path class="st2" d="M8.4,6.6c-0.3,0-0.6,0-1,0c-4.8,0-6.1-1.9-6.1-1.9v3c0,0,0.4,1.8,4.5,2.2C6.1,8.5,7.1,7.3,8.4,6.6z"/>
<path class="st2" d="M13.6,4.8c0,0-0.5,0.7-2.1,1.3c0.8,0.1,1.5,0.3,2.1,0.7V4.8z"/>
<path class="st2" d="M5.6,11.4C2.2,11,1.3,9.6,1.3,9.6v3.2c0,0,0.5,2.2,6,2.3C6.2,14.1,5.6,12.8,5.6,11.4z"/>
<path class="st3" d="M13.6,6.8v1c0,0-0.5,2.3-6.1,2.3c-0.6,0-1.2,0-1.7-0.1c-0.1,0.4-0.2,0.8-0.2,1.3v0.1c0.6,0.1,1.2,0.1,1.9,0.1
	c4.8,0,6.1-1.9,6.1-1.9v3.2c0,0-0.5,2.3-6.1,2.3c-0.1,0-0.1,0-0.2,0c0.9,0.9,2.2,1.4,3.6,1.4c2.9,0,5.3-2.4,5.3-5.3
	C16.1,9.3,15.1,7.7,13.6,6.8z"/>
<path class="st4" d="M10.8,6C9.9,6,9.1,6.2,8.4,6.6c1.3-0.1,2.4-0.3,3.1-0.6C11.3,6,11.1,6,10.8,6z"/>
<path class="st3" d="M13.6,7.7v-1C13,6.3,12.3,6.1,11.5,6c-0.8,0.3-1.8,0.5-3.1,0.6C7.1,7.3,6.1,8.5,5.7,10c0.5,0,1.1,0,1.7,0
	C13,10,13.6,7.7,13.6,7.7z"/>
<path class="st3" d="M13.6,12.8V9.6c0,0-1.3,1.9-6.1,1.9c-0.7,0-1.3,0-1.9-0.1c0,1.5,0.7,2.8,1.7,3.7c0.1,0,0.1,0,0.2,0
	C13,15.1,13.6,12.8,13.6,12.8z"/>
<path class="st5" d="M13.7,14.8H8.2c-0.6,0-1-0.4-1-1v-3.4c0-0.6,0.4-1,1-1h5.5c0.6,0,1,0.4,1,1v3.4C14.7,14.3,14.2,14.8,13.7,14.8z
	"/>
<path class="st5" d="M12.6,7.7H9.1c-0.2,0-0.4,0.2-0.4,0.4v1.5c0,0.2,0.2,0.4,0.4,0.4h3.4c0.2,0,0.4-0.2,0.4-0.4V8.1
	C12.9,7.9,12.8,7.7,12.6,7.7z M12.3,9.6H9.2V8.2h3.2v1.4H12.3z"/>
<rect x="9.7" y="8.5" class="st3" width="2.9" height="1.4"/>
</svg>
