<svg xmlns="http://www.w3.org/2000/svg" viewBox="0 0 16 16" enable-background="new 0 0 16 16" width="16" height="16">
<path fill-rule="evenodd" clip-rule="evenodd" fill="#83F6FF" d="M14.959,9.679c0-1.664-1.642-3.018-3.662-3.018
	c-2.019,0-3.66,1.354-3.66,3.018c0,1.663,1.641,3.017,3.66,3.017c0.307,0,0.604-0.034,0.889-0.094l0.543,0.22l0.983,0.397
	l-0.219-0.726L13.39,12.15C14.337,11.604,14.959,10.701,14.959,9.679L14.959,9.679z"/>
<path fill-rule="evenodd" clip-rule="evenodd" fill="#72DB67" d="M10.766,5.944c0.066,0,0.129,0.006,0.194,0.008
	C10.4,4.107,8.42,2.742,6.056,2.742c-2.798,0-5.067,1.911-5.067,4.271c0,1.452,0.862,2.733,2.175,3.505l-0.416,1.389l1.925-0.789
	c0.441,0.105,0.903,0.165,1.383,0.165c0.426,0,0.837-0.048,1.231-0.132c-0.364-0.515-0.576-1.117-0.576-1.762
	C6.713,7.491,8.53,5.944,10.766,5.944L10.766,5.944z"/>
</svg>
