<svg xmlns="http://www.w3.org/2000/svg" viewBox="0 0 16 16" enable-background="new 0 0 16 16" width="16" height="16">
<g>
	<path fill="#B7653D" d="M15.464,8.8C15.105,5.746,12.248,3.296,8,3.296c-4.249,0-7.106,2.449-7.464,5.504
		C0.207,11.618,3.752,12.704,8,12.704S15.792,11.617,15.464,8.8z M4.94,9.773c-1.029,0-1.862-0.557-1.862-1.245
		c0-0.687,0.834-1.244,1.862-1.244c1.029,0,1.863,0.557,1.863,1.244C6.802,9.216,5.968,9.773,4.94,9.773z M11.06,9.773
		c-1.028,0-1.863-0.557-1.863-1.245c0-0.687,0.835-1.244,1.863-1.244c1.03,0,1.863,0.557,1.863,1.244
		C12.923,9.216,12.089,9.773,11.06,9.773z"/>
</g>
</svg>
