<svg xmlns="http://www.w3.org/2000/svg" viewBox="0 0 16 16" enable-background="new 0 0 16 16" width="16" height="16">
<path display="none" fill="#424242" d="M14.5,11.1h-0.2h-0.8h-0.9l0.6-0.6c-0.4-0.5-1-0.9-1.7-0.9c-1.1,0-2,0.9-2,2H8.7
	c0-1.5,1.3-2.7,2.8-2.7c0.9,0,1.7,0.4,2.2,1.1l0.7-0.7v1.8C14.4,11.1,14.5,11.1,14.5,11.1z M9.9,12.8c0.4,0.5,1,0.9,1.7,0.9
	c1.1,0,2-0.9,2-2c0,0,0,0,0-0.1h0.8c0,0,0,0,0,0.1c0,1.5-1.2,2.8-2.8,2.8c-0.9,0-1.7-0.4-2.2-1.1L8.8,14v-1.8h1.9L9.9,12.8z"/>
<path fill="#C5C5C5" d="M8.1,11C8.1,11,8,11,8.1,11C6.3,11,5,9.7,5,8s1.3-3,3-3s3,1.3,3,3c0,0.1,0,0.3,0,0.4c0.2,0,0.5-0.1,0.7-0.1
	c0.9,0,1.7,0.3,2.3,0.8c0.5-0.1,1-0.3,1-0.3c0-0.3,0-0.5,0-0.8s0-0.5,0-0.8l-2.2-0.8c-0.1-0.2-0.2-0.4-0.2-0.6l1-2.1
	c-0.3-0.4-0.7-0.8-1.1-1.1l-2.1,1C10,3.4,9.8,3.4,9.6,3.3L8.8,1C8.5,1,8.3,1,8,1S7.5,1,7.2,1L6.4,3.3C6.2,3.4,6,3.4,5.8,3.5l-2.1-1
	C3.2,2.9,2.9,3.2,2.5,3.7l1,2.1C3.4,6,3.4,6.2,3.3,6.4L1,7.2C1,7.5,1,7.7,1,8s0,0.5,0,0.8l2.2,0.8c0.1,0.2,0.2,0.4,0.2,0.6l-1,2.1
	c0.3,0.4,0.7,0.8,1.1,1.1l2.1-1c0.2,0.1,0.4,0.2,0.6,0.2l1,2.4c0.3,0,0.5,0,0.8,0s0.5,0,0.8,0l0.1-0.3c-0.6-0.7-1-1.6-1-2.5
	C7.9,11.7,8,11.3,8.1,11z"/>
<circle fill="#C5C5C5" cx="8" cy="8" r="1.5"/>
<path fill="#C5C5C5" d="M10.9,11.7l-1,1c-0.2-0.7-0.1-1.5,0.5-2.1c0.4-0.4,0.9-0.6,1.5-0.6V9.1c-0.8,0-1.6,0.3-2.1,0.9
	c-0.9,0.9-1.1,2.3-0.5,3.5L8.6,14l2.4,0.2L10.9,11.7z M12.7,9.9l0.2,2.4l1-1c0.2,0.7,0.1,1.5-0.5,2.1C13,13.8,12.5,14,11.9,14v0.9
	c0.8,0,1.6-0.3,2.1-0.9c0.9-0.9,1.1-2.3,0.5-3.5l0.6-0.6H12.7L12.7,9.9z"/>
</svg>
