<svg xmlns="http://www.w3.org/2000/svg" viewBox="0 0 16 16" enable-background="new 0 0 16 16" width="16" height="16">
<path fill="#89D185" d="M1.4,6.8l1.7,1.7c0.1,0.1,0.2,0.1,0.2,0l1-1c0.1-0.1,0.1-0.2,0-0.2L4.1,6.9c0-0.2,0.2-0.5,0.3-0.6
	c0.2-0.1,0.7-0.2,1.1-0.1S6.2,6.6,7,7.4L6.8,7.7C6.7,7.8,6.8,8,6.8,8s0.1,0.1,1.4,1.4c1.9,1.9,3.8,4.3,3.8,4.3
	c0.1,0.1,0.2,0.1,0.2,0l1.7-1.7c0.1-0.1,0.1-0.2,0-0.2c0,0-2.4-1.9-4.3-3.8C8.5,6.6,8.4,6.5,8.4,6.5C8.3,6.4,8.1,6.4,8,6.5L7.9,6.6
	C7,5.7,6.8,5.3,6.8,4.6S7.2,3.4,7.7,3s1.7-0.3,2.1-0.3s0.2-0.3,0-0.4C9.4,2,8.1,1.5,6.7,2.1S4.4,3.5,4.2,3.8C4,4,3.7,4.3,3.5,4.6
	c-0.2,0.3,0,0.7-0.2,0.9C3.2,5.6,2.9,5.6,2.8,5.6L2.7,5.5c-0.1-0.1-0.2-0.1-0.2,0l-1,1C1.3,6.6,1.3,6.8,1.4,6.8z"/>
</svg>
